<?xml version="1.0" encoding="iso-8859-1"?>
<!-- Generator: Adobe Illustrator 19.0.0, SVG Export Plug-In . SVG Version: 6.00 Build 0)  -->
<svg version="1.1" id="Capa_1" xmlns="http://www.w3.org/2000/svg" xmlns:xlink="http://www.w3.org/1999/xlink" x="0px" y="0px"
	 viewBox="0 0 512 512" style="enable-background:new 0 0 512 512;" xml:space="preserve">
<g>
	<g>
		<g>
			<path d="M298.137,171h-57.545l40.348-66.103c4.317-7.071,2.083-16.303-4.988-20.619c-7.07-4.316-16.302-2.084-20.618,4.989
				l-54.274,88.919c-2.826,4.63-2.933,10.425-0.278,15.155c2.655,4.73,7.657,7.659,13.081,7.659h57.545l-40.348,66.103
				c-4.317,7.071-2.083,16.303,4.988,20.619c7.06,4.31,16.296,2.093,20.618-4.989l54.274-88.919
				c2.826-4.63,2.933-10.425,0.278-15.155C308.563,173.929,303.562,171,298.137,171z"/>
			<path d="M256,0C153.991,0,71,82.99,71,185c0,62.516,31.352,120.076,82.844,154.256c1.368,12.639,9.899,91.424,10.758,99.358
				c0.824,7.615,7.253,13.386,14.913,13.386H201v5c0,30.327,24.673,55,55,55c30.327,0,55-24.673,55-55v-5h21.485
				c7.659,0,14.088-5.771,14.913-13.386c1.08-9.977,9.668-89.289,10.758-99.358C409.625,305.091,441,247.544,441,185
				C441,82.99,358.009,0,256,0z M281,457c0,13.785-11.215,25-25,25c-13.785,0-25-11.215-25-25v-5h50V457z M319.022,422
				c-15.327,0-113.009,0-126.044,0l-1.506-13.905h129.055L319.022,422z M323.776,378.095H188.224l-1.506-13.905h138.563
				L323.776,378.095z M336.242,317.64c-3.994,2.422-6.632,6.567-7.135,11.212l-0.578,5.338H183.471l-0.578-5.338
				c-0.502-4.645-3.141-8.79-7.135-11.212C130.792,290.374,101,241.031,101,185c0-85.467,69.533-155,155-155s155,69.533,155,155
				C411,241.044,381.197,290.38,336.242,317.64z"/>
		</g>
	</g>
</g>
<g>
</g>
<g>
</g>
<g>
</g>
<g>
</g>
<g>
</g>
<g>
</g>
<g>
</g>
<g>
</g>
<g>
</g>
<g>
</g>
<g>
</g>
<g>
</g>
<g>
</g>
<g>
</g>
<g>
</g>
</svg>
