<?xml version="1.0" encoding="iso-8859-1"?>
<!-- Generator: Adobe Illustrator 19.0.0, SVG Export Plug-In . SVG Version: 6.00 Build 0)  -->
<svg version="1.1" id="Capa_1" xmlns="http://www.w3.org/2000/svg" xmlns:xlink="http://www.w3.org/1999/xlink" x="0px" y="0px"
	 viewBox="0 0 512 512" style="enable-background:new 0 0 512 512;" xml:space="preserve">
<path style="fill:#FDF05F;" d="M441,185c0,64.526-33.022,121.114-82.71,154.17c-0.04,0.03-0.09,0.06-0.13,0.09l-10.76,99.35
	c-0.83,7.62-7.26,13.39-14.91,13.39H179.51c-7.65,0-14.08-5.77-14.91-13.39l-10.76-99.35c-0.04-0.03-0.09-0.06-0.13-0.09
	C104.001,306.1,71,249.499,71,185C71,82.99,153.99,0,256,0S441,82.99,441,185z"/>
<path style="fill:#FED23C;" d="M256,0v452h76.49c7.65,0,14.08-5.77,14.91-13.39l10.76-99.35c0.04-0.03,0.09-0.06,0.13-0.09
	C407.978,306.114,441,249.525,441,185C441,82.99,358.01,0,256,0z"/>
<path style="fill:#B5B8C6;" d="M296,422h-80c-8.284,0-15,6.716-15,15v20c0,30.327,24.673,55,55,55s55-24.673,55-55v-20
	C311,428.716,304.284,422,296,422z"/>
<path style="fill:#979CAF;" d="M296,422h-40v90c30.327,0,55-24.673,55-55v-20C311,428.716,304.284,422,296,422z"/>
<path style="fill:#F1F1F6;" d="M358.29,339.17c-0.04,0.03-0.09,0.06-0.13,0.09l-4.48,41.32l-3.24,30l-3.04,28.03
	c-0.83,7.62-7.26,13.39-14.91,13.39H179.51c-7.65,0-14.08-5.77-14.91-13.39l-3.04-28.03l-3.24-30l-4.48-41.32
	c-0.04-0.03-0.09-0.06-0.13-0.09H358.29z"/>
<path style="fill:#D4D6E1;" d="M256,339.17V452h76.49c7.65,0,14.08-5.77,14.91-13.39l3.04-28.03l3.24-30l4.48-41.32
	c0.04-0.03,0.09-0.06,0.13-0.09L256,339.17L256,339.17z"/>
<polygon style="fill:#B5B8C6;" points="353.68,380.58 350.44,410.58 161.56,410.58 158.32,380.58 "/>
<path style="fill:#FD8372;" d="M236.048,287.723c-7.071-4.316-9.305-13.548-4.988-20.619L271.408,201h-57.545
	c-5.424,0-10.426-2.929-13.081-7.659s-2.548-10.525,0.278-15.155l54.274-88.919c4.316-7.073,13.548-9.305,20.618-4.989
	c7.071,4.316,9.305,13.548,4.988,20.619L240.592,171h57.545c5.424,0,10.426,2.929,13.081,7.659s2.548,10.525-0.278,15.155
	l-54.274,88.919C252.344,289.816,243.108,292.032,236.048,287.723z"/>
<polygon style="fill:#979CAF;" points="353.68,380.58 256,380.58 256,410.58 350.44,410.58 "/>
<g>
	<path style="fill:#FB3C33;" d="M280.94,104.896c4.316-7.071,2.083-16.303-4.988-20.619c-6.73-4.108-15.409-2.273-19.952,4.012
		v57.467L280.94,104.896z"/>
	<path style="fill:#FB3C33;" d="M311.218,178.659c-2.655-4.73-7.657-7.659-13.081-7.659H256v30h15.408L256,226.243v57.467
		c0.23-0.318,0.458-0.636,0.666-0.977l54.274-88.919C313.767,189.185,313.873,183.39,311.218,178.659z"/>
</g>
<g>
</g>
<g>
</g>
<g>
</g>
<g>
</g>
<g>
</g>
<g>
</g>
<g>
</g>
<g>
</g>
<g>
</g>
<g>
</g>
<g>
</g>
<g>
</g>
<g>
</g>
<g>
</g>
<g>
</g>
</svg>
