<?xml version="1.0" encoding="iso-8859-1"?>
<!-- Generator: Adobe Illustrator 19.0.0, SVG Export Plug-In . SVG Version: 6.00 Build 0)  -->
<svg version="1.1" id="Capa_1" xmlns="http://www.w3.org/2000/svg" xmlns:xlink="http://www.w3.org/1999/xlink" x="0px" y="0px"
	 viewBox="0 0 512 512" style="enable-background:new 0 0 512 512;" xml:space="preserve">
<g>
	<g>
		<path d="M286.01,482h-59.999c-8.291,0-15,6.709-15,15c0,8.291,6.709,15,15,15h59.999c8.291,0,15-6.709,15-15
			C301.01,488.709,294.301,482,286.01,482z"/>
	</g>
</g>
<g>
	<g>
		<path d="M256.011,150.004c-8.276,0-15,6.724-15,15c0,8.276,6.724,15,15,15s15-6.723,15-15
			C271.01,156.728,264.287,150.004,256.011,150.004z"/>
	</g>
</g>
<g>
	<g>
		<path d="M220.826,3.653c-64.101,13.301-115.121,65.8-126.987,130.604c-8.804,47.988,2.959,95.17,33.12,132.875
			c15.513,19.38,24.053,43.037,24.053,66.62v28.25h89.999V207.24c-1.465-0.522-2.889-1.082-4.279-1.747l-33.748,33.748
			c-5.859,5.859-15.352,5.859-21.211,0s-5.859-15.352,0-21.211l33.748-33.748c-0.665-1.39-1.225-2.814-1.747-4.279h-47.763
			c-8.291,0-15-6.709-15-15c0-8.291,6.709-15,15-15h47.763c0.522-1.465,1.082-2.889,1.747-4.279l-33.748-33.748
			c-5.859-5.859-5.859-15.352,0-21.211s15.352-5.859,21.211,0l33.748,33.748c1.39-0.665,2.814-1.225,4.279-1.747V75.005
			c0-8.291,6.709-15,15-15s15,6.709,15,15v47.763c1.465,0.522,2.889,1.082,4.279,1.747l33.748-33.748
			c5.859-5.859,15.352-5.859,21.211,0s5.859,15.352,0,21.211L296.5,145.726c0.665,1.39,1.225,2.814,1.747,4.279h47.763
			c8.291,0,15,6.709,15,15c0,8.291-6.709,15-15,15h-47.763c-0.522,1.465-1.082,2.889-1.747,4.279l33.748,33.748
			c5.859,5.859,5.859,15.352,0,21.211c-5.859,5.859-15.352,5.859-21.211,0l-33.748-33.748c-1.39,0.665-2.814,1.225-4.279,1.747
			v154.761h89.999v-28.294c0-23.833,8.276-47.153,23.306-65.653c24.009-29.561,36.694-65.199,36.694-103.051
			C421.009,61.264,326.057-18.256,220.826,3.653z"/>
	</g>
</g>
<g>
	<g>
		<path d="M152.53,392.001c6.969,34.192,37.266,59.999,73.481,59.999h59.999c36.216,0,66.512-25.809,73.481-59.999H152.53z"/>
	</g>
</g>
<g>
</g>
<g>
</g>
<g>
</g>
<g>
</g>
<g>
</g>
<g>
</g>
<g>
</g>
<g>
</g>
<g>
</g>
<g>
</g>
<g>
</g>
<g>
</g>
<g>
</g>
<g>
</g>
<g>
</g>
</svg>
