<?xml version="1.0" encoding="iso-8859-1"?>
<!-- Generator: Adobe Illustrator 19.0.0, SVG Export Plug-In . SVG Version: 6.00 Build 0)  -->
<svg version="1.1" id="Capa_1" xmlns="http://www.w3.org/2000/svg" xmlns:xlink="http://www.w3.org/1999/xlink" x="0px" y="0px"
	 viewBox="0 0 512 512" style="enable-background:new 0 0 512 512;" xml:space="preserve">
<g>
	<g>
		<path d="M391,423.509V285c0-74.439-60.561-135-135-135s-135,60.561-135,135v138.509C86.808,430.478,61,460.781,61,497
			c0,8.284,6.716,15,15,15h360c8.284,0,15-6.716,15-15C451,460.781,425.192,430.478,391,423.509z M151,285
			c0-57.897,47.103-105,105-105c57.897,0,105,47.103,105,105v75h-60v-45c0-11.517-4.354-22.032-11.495-30
			c7.142-7.968,11.495-18.483,11.495-30c0-24.813-20.187-45-45-45s-45,20.187-45,45c0,11.517,4.354,22.032,11.495,30
			C215.354,292.968,211,303.483,211,315v45h-60V285z M256,270c-8.271,0-15-6.729-15-15s6.729-15,15-15s15,6.729,15,15
			S264.271,270,256,270z M271,315v45h-30v-45c0-8.271,6.729-15,15-15S271,306.729,271,315z M151,390c11.116,0,198.538,0,210,0v32
			H151V390z M93.57,482c6.19-17.461,22.873-30,42.43-30h240c19.557,0,36.239,12.539,42.43,30H93.57z"/>
	</g>
</g>
<g>
	<g>
		<path d="M256,0c-8.284,0-15,6.716-15,15v60c0,8.284,6.716,15,15,15s15-6.716,15-15V15C271,6.716,264.284,0,256,0z"/>
	</g>
</g>
<g>
	<g>
		<path d="M76,210H15c-8.284,0-15,6.716-15,15s6.716,15,15,15h61c8.284,0,15-6.716,15-15S84.284,210,76,210z"/>
	</g>
</g>
<g>
	<g>
		<path d="M497,210h-61c-8.284,0-15,6.716-15,15s6.716,15,15,15h61c8.284,0,15-6.716,15-15S505.284,210,497,210z"/>
	</g>
</g>
<g>
	<g>
		<path d="M436.313,44.688c-5.856-5.857-15.354-5.858-21.213,0l-42.427,42.426c-5.858,5.857-5.858,15.355,0,21.213
			c5.857,5.858,15.355,5.858,21.213,0l42.427-42.426C442.171,60.044,442.171,50.546,436.313,44.688z"/>
	</g>
</g>
<g>
	<g>
		<path d="M139.327,87.114L96.9,44.688c-5.857-5.858-15.355-5.858-21.213,0c-5.858,5.858-5.858,15.355,0,21.213l42.427,42.426
			c5.857,5.858,15.356,5.858,21.213,0C145.185,102.469,145.185,92.972,139.327,87.114z"/>
	</g>
</g>
<g>
</g>
<g>
</g>
<g>
</g>
<g>
</g>
<g>
</g>
<g>
</g>
<g>
</g>
<g>
</g>
<g>
</g>
<g>
</g>
<g>
</g>
<g>
</g>
<g>
</g>
<g>
</g>
<g>
</g>
</svg>
