<?xml version="1.0" encoding="iso-8859-1"?>
<!-- Generator: Adobe Illustrator 19.0.0, SVG Export Plug-In . SVG Version: 6.00 Build 0)  -->
<svg version="1.1" id="Capa_1" xmlns="http://www.w3.org/2000/svg" xmlns:xlink="http://www.w3.org/1999/xlink" x="0px" y="0px"
	 viewBox="0 0 512.003 512.003" style="enable-background:new 0 0 512.003 512.003;" xml:space="preserve">
<g>
	<g>
		<path d="M380.173,251.733c-14.093-4.992-40.921-16.702-62.427-39.082c-2.384-2.478-4.809-4.86-7.207-7.082
			c-3.039-2.816-7.785-2.634-10.599,0.405c-2.814,3.038-2.634,7.783,0.405,10.599c2.188,2.027,4.405,4.207,6.588,6.475
			c22.413,23.325,49.384,36.136,68.12,42.786c-30.409,11.034-68.561,20.567-107.591,12.837c-0.1-0.024-0.194-0.063-0.296-0.083
			c-24.627-4.934-46.546-16.251-65.505-32.432c-2.454-2.094-5.923-2.356-8.63-0.785c-0.096,0.056-0.182,0.135-0.276,0.195
			c-0.284,0.182-0.568,0.364-0.831,0.588l-0.002,0.001c-0.044,0.038-0.089,0.073-0.132,0.111
			c-9.435,8.031-19.455,14.742-29.898,20.038V237.7c0-18.833-7.256-36.232-19.313-49.271c22.652-5.605,40.308,0.061,48.622,9.359
			c1.423,1.592,3.457,2.501,5.592,2.501c2.135,0,4.168-0.91,5.591-2.502c12.243-13.699,41.762-17.656,74.491,1.283
			c3.587,2.075,8.175,0.852,10.248-2.734c2.075-3.585,0.851-8.174-2.734-10.248c-17.776-10.287-36.29-15.421-53.521-14.819
			c-13.451,0.462-25.266,4.417-34.06,11.285c-16.172-12.768-41.63-14.99-67.864-5.65c-6.723-4.383-14.25-7.686-22.358-9.655
			c-11.051-19.465-32.555-16.952-33.245-17.119c-6.369,0-11.55,5.182-11.55,11.551v80.549v35.81
			c-16.497-3.122-31.509-7.927-43.269-12.205c9.227-3.271,18.265-7.278,26.866-11.912c3.646-1.964,5.01-6.513,3.046-10.159
			c-1.964-3.646-6.514-5.009-10.16-3.046c-7.964,4.29-16.336,7.999-24.879,11.021c0,0,0,0-0.001,0
			c-6.312,2.388-10.367,6.858-12.27,12.312c-2.009,5.757-1.306,12.025,1.928,17.196c10.775,17.238,29.606,42.016,58.74,63.671
			v141.812c0,4.143,3.358,7.5,7.5,7.5c4.142,0,7.5-3.357,7.5-7.5V253.792h0.37c18.676,0,33.87-15.194,33.87-33.87v-35.519
			c4.296,1.742,8.323,3.971,12.006,6.633c0.213,0.18,0.434,0.347,0.664,0.501c14.195,10.578,23.189,27.481,23.189,46.165v40.153
			c0,0.012-0.001,0.025-0.001,0.037c0,0.017,0.001,0.033,0.001,0.049v19.997c0,0.026,0,0.052,0,0.079v10.819h-35.049
			c-4.142,0-7.5,3.357-7.5,7.5c0,4.143,3.358,7.5,7.5,7.5h35.049v94.999h-35.049c-4.142,0-7.5,3.357-7.5,7.5
			c0,4.143,3.358,7.5,7.5,7.5h35.049v52.896c0,4.143,3.358,7.5,7.5,7.5s7.5-3.357,7.5-7.5v-60.319c0-0.026,0.004-0.051,0.004-0.077
			s-0.004-0.051-0.004-0.077V316.412c0-0.026,0.004-0.051,0.004-0.077s-0.004-0.051-0.004-0.077v-8.526
			c11.15,2.587,22.844,3.91,34.9,3.91c26.216,0,51.047-6.315,70.344-17.806c9.653,1.75,19.597,2.634,29.823,2.634
			c1.135,0,2.28-0.011,3.422-0.032c26.564-0.504,51.339-6.833,70.953-13.408c-23.5,33.26-77.983,90.472-174.541,90.472
			c-4.053,0-8.117-0.102-12.079-0.302c-4.141-0.227-7.66,2.974-7.869,7.111c-0.209,4.137,2.975,7.66,7.111,7.869
			c4.214,0.213,8.533,0.321,12.837,0.321c114.364,0,173.587-75.007,193.743-107.255
			C397.006,270.891,392.953,256.545,380.173,251.733z M61.794,325.848c-17.539-14.541-30.486-29.95-39.557-42.828
			c11.419,3.829,24.932,7.683,39.557,10.265V325.848z M96.034,219.921c0,10.405-8.465,18.87-18.87,18.87h-0.37v-73.66h0.37
			c7.634,0,14.469,4.544,17.409,11.568c0.97,2.325,1.461,4.781,1.461,7.302V219.921z M196.793,296.641
			c-12.149,0-23.86-1.468-34.9-4.351v-9.362c12.207-5.466,23.908-12.619,34.899-21.351c15.125,12.019,31.324,20.805,48.045,26.499
			C230.563,293.657,214.056,296.641,196.793,296.641z"/>
	</g>
</g>
<g>
	<g>
		<path d="M472.578,17.772h-105.74c-4.143,0-7.5,3.357-7.5,7.5c0,4.143,3.357,7.5,7.5,7.5h105.74
			c13.468,0,24.424,10.956,24.424,24.424v61.674c0,13.468-10.956,24.424-24.424,24.424h-99.332c-3.371,0-6.328,2.25-7.229,5.499
			c-2.986,10.788-10.624,19.403-20.952,23.637c-3.41,1.397-6.956,2.25-10.534,2.559c5.927-6.123,10.274-13.729,12.558-22.254
			c0.604-2.252,0.125-4.656-1.294-6.507c-1.42-1.85-3.618-2.934-5.95-2.934h-9.784c-13.468,0-24.424-10.956-24.424-24.424V57.195
			c0-13.468,10.956-24.424,24.424-24.424h6.777c4.143,0,7.5-3.357,7.5-7.5c0-4.143-3.357-7.5-7.5-7.5h-6.777
			c-21.738,0-39.424,17.686-39.424,39.424v61.674c0,21.246,16.895,38.621,37.955,39.396c-3.808,6.277-9.481,11.267-16.41,14.256
			c-2.774,1.198-4.56,3.944-4.528,6.966c0.032,3.022,1.876,5.73,4.676,6.869c26.264,10.677,55.893-2.169,66.288-28.063h93.961
			c21.738,0,39.424-17.686,39.424-39.424V57.195C512.002,35.458,494.317,17.772,472.578,17.772z"/>
	</g>
</g>
<g>
</g>
<g>
</g>
<g>
</g>
<g>
</g>
<g>
</g>
<g>
</g>
<g>
</g>
<g>
</g>
<g>
</g>
<g>
</g>
<g>
</g>
<g>
</g>
<g>
</g>
<g>
</g>
<g>
</g>
</svg>
